REM DIRINDEX 1\2,1\3,1\4,1\5
REM DIRNAME "folder01","folder02","folder03","folder04","folder05"
TITLE ""
FILE "P1Q_t_0060-0069.mp3" MP3
  TRACK 01 AUDIO
    TITLE "3:cjc173_1088"
    INDEX 01 00:00:00
  TRACK 02 AUDIO
    TITLE "0:"
    INDEX 01 00:01:25
  TRACK 03 AUDIO
    TITLE "4:cjc173_1089"
    INDEX 01 00:01:49
  TRACK 04 AUDIO
    TITLE "0:"
    INDEX 01 00:02:48
  TRACK 05 AUDIO
    TITLE "5:cjc173_1090"
    INDEX 01 00:02:68
  TRACK 06 AUDIO
    TITLE "0:"
    INDEX 01 00:08:67
  TRACK 07 AUDIO
    TITLE "3:cjc173_1091"
    INDEX 01 00:09:37
  TRACK 08 AUDIO
    TITLE "0:"
    INDEX 01 00:10:66
  TRACK 09 AUDIO
    TITLE "4:cjc173_1092"
    INDEX 01 00:11:14
  TRACK 10 AUDIO
    TITLE "0:"
    INDEX 01 00:13:50
  TRACK 11 AUDIO
    TITLE "5:cjc173_1093"
    INDEX 01 00:13:72
  TRACK 12 AUDIO
    TITLE "0:"
    INDEX 01 00:18:57
  TRACK 13 AUDIO
    TITLE "3:cjc173_1094"
    INDEX 01 00:19:31
  TRACK 14 AUDIO
    TITLE "0:"
    INDEX 01 00:20:27
  TRACK 15 AUDIO
    TITLE "4:cjc173_1095"
    INDEX 01 00:20:50
  TRACK 16 AUDIO
    TITLE "0:"
    INDEX 01 00:23:27
  TRACK 17 AUDIO
    TITLE "5:cjc173_1096"
    INDEX 01 00:23:47
  TRACK 18 AUDIO
    TITLE "0:"
    INDEX 01 00:29:06
  TRACK 19 AUDIO
    TITLE "3:cjc173_1097"
    INDEX 01 00:29:53
  TRACK 20 AUDIO
    TITLE "0:"
    INDEX 01 00:30:58
  TRACK 21 AUDIO
    TITLE "4:cjc173_1098"
    INDEX 01 00:31:05
  TRACK 22 AUDIO
    TITLE "0:"
    INDEX 01 00:34:09
  TRACK 23 AUDIO
    TITLE "5:cjc173_1099"
    INDEX 01 00:34:29
  TRACK 24 AUDIO
    TITLE "0:"
    INDEX 01 00:38:64
  TRACK 25 AUDIO
    TITLE "3:cjc173_1100"
    INDEX 01 00:39:34
  TRACK 26 AUDIO
    TITLE "0:"
    INDEX 01 00:40:51
  TRACK 27 AUDIO
    TITLE "4:cjc173_1101"
    INDEX 01 00:40:74
  TRACK 28 AUDIO
    TITLE "0:"
    INDEX 01 00:44:12
  TRACK 29 AUDIO
    TITLE "5:cjc173_1102"
    INDEX 01 00:44:31
  TRACK 30 AUDIO
    TITLE "0:"
    INDEX 01 00:48:39
  TRACK 31 AUDIO
    TITLE "3:cjc173_1103"
    INDEX 01 00:49:09
  TRACK 32 AUDIO
    TITLE "0:"
    INDEX 01 00:50:26
  TRACK 33 AUDIO
    TITLE "4:cjc173_1104"
    INDEX 01 00:50:49
  TRACK 34 AUDIO
    TITLE "0:"
    INDEX 01 00:52:01
  TRACK 35 AUDIO
    TITLE "5:cjc173_1105"
    INDEX 01 00:52:21
  TRACK 36 AUDIO
    TITLE "0:"
    INDEX 01 00:57:24
  TRACK 37 AUDIO
    TITLE "3:cjc173_1106"
    INDEX 01 00:57:69
  TRACK 38 AUDIO
    TITLE "0:"
    INDEX 01 00:58:74
  TRACK 39 AUDIO
    TITLE "4:cjc173_1107"
    INDEX 01 00:59:23
  TRACK 40 AUDIO
    TITLE "0:"
    INDEX 01 01:01:12
  TRACK 41 AUDIO
    TITLE "5:cjc173_1108"
    INDEX 01 01:01:33
  TRACK 42 AUDIO
    TITLE "0:"
    INDEX 01 01:06:15
  TRACK 43 AUDIO
    TITLE "3:cjc173_1109"
    INDEX 01 01:06:60
  TRACK 44 AUDIO
    TITLE "0:"
    INDEX 01 01:08:06
  TRACK 45 AUDIO
    TITLE "4:cjc173_1110"
    INDEX 01 01:08:28
  TRACK 46 AUDIO
    TITLE "0:"
    INDEX 01 01:11:30
  TRACK 47 AUDIO
    TITLE "5:cjc173_1111"
    INDEX 01 01:11:52
  TRACK 48 AUDIO
    TITLE "0:"
    INDEX 01 01:15:55
  TRACK 49 AUDIO
    TITLE "3:cjc173_1112"
    INDEX 01 01:16:29
  TRACK 50 AUDIO
    TITLE "0:"
    INDEX 01 01:17:52
  TRACK 51 AUDIO
    TITLE "4:cjc173_1113"
    INDEX 01 01:17:74
  TRACK 52 AUDIO
    TITLE "0:"
    INDEX 01 01:20:49
  TRACK 53 AUDIO
    TITLE "5:cjc173_1114"
    INDEX 01 01:20:66
  TRACK 54 AUDIO
    TITLE "0:"
    INDEX 01 01:25:46
  TRACK 55 AUDIO
    TITLE "3:cjc173_1115"
    INDEX 01 01:26:18
  TRACK 56 AUDIO
    TITLE "0:"
    INDEX 01 01:27:33
  TRACK 57 AUDIO
    TITLE "4:cjc173_1116"
    INDEX 01 01:27:54
  TRACK 58 AUDIO
    TITLE "0:"
    INDEX 01 01:30:19
  TRACK 59 AUDIO
    TITLE "5:cjc173_1117"
    INDEX 01 01:30:41
  TRACK 60 AUDIO
    TITLE "0:"
    INDEX 01 01:34:35
